<svg xmlns="http://www.w3.org/2000/svg" viewBox="0 0 800 600">
  <rect width="800" height="600" fill="#ffffff"/>
  <rect y="460" width="800" height="140" fill="#FFECB3"/>

  <text x="400" y="48" text-anchor="middle" font-family="sans-serif" font-size="34" font-weight="bold" fill="#37474F">La Comida</text>
  <text x="400" y="76" text-anchor="middle" font-family="sans-serif" font-size="20" fill="#78909C">जेवण | खाना</text>

  <rect x="120" y="330" width="300" height="18" rx="6" fill="#A1887F"/>
  <rect x="140" y="348" width="14" height="110" fill="#6D4C41"/>
  <rect x="385" y="348" width="14" height="110" fill="#6D4C41"/>

  <circle cx="270" cy="280" r="95" fill="#ECEFF1" stroke="#B0BEC5" stroke-width="4"/>
  <circle cx="270" cy="280" r="75" fill="#FFFFFF" stroke="#CFD8DC" stroke-width="2"/>

  <g>
    <path d="M250,260 Q300,190 350,250 Q320,270 250,260 Z" fill="#FFD54F"/>
    <path d="M330,215 Q360,205 370,230 Q350,240 330,215 Z" fill="#8D6E63"/>
  </g>
  <circle cx="215" cy="250" r="26" fill="#E53935"/>
  <path d="M215,224 Q225,205 238,215 Q228,228 215,224 Z" fill="#66BB6A"/>
  <line x1="215" y1="224" x2="238" y2="215" stroke="#2E7D32" stroke-width="3"/>
  <circle cx="225" cy="252" r="5" fill="#C62828"/>

  <rect x="280" y="235" width="45" height="25" rx="6" fill="#8D6E63"/>
  <path d="M280,235 Q302,218 325,235 Z" fill="#A1887F"/>

  <circle cx="330" cy="290" r="22" fill="#FB8C00"/>
  <circle cx="320" cy="280" r="20" fill="#FB8C00"/>

  <g>
    <rect x="420" y="230" width="90" height="120" rx="8" fill="#ECEFF1"/>
    <rect x="430" y="245" width="70" height="30" rx="5" fill="#FFFDE7"/>
    <text x="465" y="265" text-anchor="middle" font-family="sans-serif" font-size="16" font-weight="bold" fill="#1565C0">LECHE</text>
    <path d="M420,230 L450,245 L480,230 Z" fill="#B0BEC5"/>
  </g>

  <g>
    <rect x="560" y="250" width="60" height="85" rx="6" fill="#B3E5FC"/>
    <rect x="588" y="240" width="6" height="16" rx="3" fill="#4FC3F7"/>
    <circle cx="570" cy="270" r="4" fill="#FFFFFF" opacity="0.8"/>
  </g>

  <g>
    <ellipse cx="610" cy="370" rx="26" ry="20" fill="#FAFAFA" stroke="#B0BEC5" stroke-width="2"/>
    <ellipse cx="640" cy="375" rx="22" ry="17" fill="#FAFAFA" stroke="#B0BEC5" stroke-width="2"/>
    <ellipse cx="617" cy="368" rx="14" ry="9" fill="#FFD54F"/>
    <ellipse cx="638" cy="372" rx="12" ry="8" fill="#FFD54F"/>
  </g>

  <circle cx="560" cy="420" r="24" fill="#E53935"/>
  <path d="M560,396 Q570,380 582,388 Q574,398 560,396 Z" fill="#66BB6A"/>
  <circle cx="580" cy="410" r="16" fill="#EF5350"/>
  <circle cx="585" cy="406" r="14" fill="#EF5350"/>

  <g font-family="sans-serif" font-size="20" font-weight="bold" fill="#37474F" text-anchor="middle">
    <text x="270" y="510">la manzana</text>
    <text x="310" y="430">el plátano</text>
    <text x="465" y="400">la leche</text>
    <text x="590" y="390">el agua</text>
    <text x="610" y="470">el huevo</text>
    <text x="560" y="500" font-size="18">el tomate</text>
  </g>
  <g stroke="#90A4AE" stroke-width="2" fill="none">
    <line x1="310" y1="418" x2="300" y2="500"/>
    <line x1="465" y1="388" x2="465" y2="395"/>
    <line x1="590" y1="382" x2="590" y2="385"/>
    <line x1="610" y1="458" x2="610" y2="465"/>
    <line x1="560" y1="490" x2="560" y2="495"/>
  </g>
</svg>
