<svg xmlns="http://www.w3.org/2000/svg" viewBox="0 0 800 600">
  <rect width="800" height="600" fill="#ffffff"/>
  <text x="400" y="44" text-anchor="middle" font-family="sans-serif" font-size="32" font-weight="bold" fill="#37474F">Die Wochentage und die Uhrzeit</text>
  <text x="400" y="70" text-anchor="middle" font-family="sans-serif" font-size="19" fill="#78909C">आठवड्याचे दिवस आणि वेळ | सप्ताह के दिन और समय</text>

  <rect x="40" y="95" width="330" height="310" rx="12" fill="#FAFAFA" stroke="#B0BEC5" stroke-width="2"/>
  <rect x="40" y="95" width="330" height="46" rx="12" fill="#3F51B5"/>
  <rect x="40" y="119" width="330" height="22" fill="#3F51B5"/>
  <text x="205" y="127" text-anchor="middle" font-family="sans-serif" font-size="23" font-weight="bold" fill="#FFFFFF">AUGUST</text>
  <g font-family="sans-serif" font-size="17" font-weight="bold" fill="#3F51B5" text-anchor="middle">
    <text x="64" y="170">Mo</text>
    <text x="110" y="170">Di</text>
    <text x="156" y="170">Mi</text>
    <text x="202" y="170">Do</text>
    <text x="248" y="170">Fr</text>
    <text x="294" y="170">Sa</text>
    <text x="340" y="170">So</text>
  </g>
  <g font-family="sans-serif" font-size="16" fill="#37474F" text-anchor="middle">
    <text x="64" y="204">1</text>
    <text x="110" y="204">2</text>
    <text x="156" y="204">3</text>
    <text x="202" y="204">4</text>
    <text x="248" y="204">5</text>
    <text x="294" y="204">6</text>
    <text x="340" y="204">7</text>
    <text x="64" y="240">8</text>
    <text x="110" y="240">9</text>
    <text x="156" y="240">10</text>
    <text x="202" y="240">11</text>
    <text x="248" y="240">12</text>
    <text x="294" y="240">13</text>
    <text x="340" y="240">14</text>
    <text x="64" y="276">15</text>
    <text x="110" y="276">16</text>
    <text x="156" y="276">17</text>
    <text x="202" y="276">18</text>
    <text x="248" y="276">19</text>
    <text x="294" y="276">20</text>
    <text x="340" y="276">21</text>
    <text x="64" y="312">22</text>
    <text x="110" y="312">23</text>
    <text x="156" y="312">24</text>
    <text x="202" y="312">25</text>
    <text x="248" y="312">26</text>
    <text x="294" y="312">27</text>
    <text x="340" y="312">28</text>
    <text x="64" y="348">29</text>
    <text x="110" y="348">30</text>
    <text x="156" y="348">31</text>
    <circle cx="202" cy="330" r="14" fill="#FFD54F"/>
    <text x="202" y="348" font-weight="bold">25</text>
  </g>
  <text x="205" y="386" text-anchor="middle" font-family="sans-serif" font-size="15" fill="#78909C">Heute ist Montag · आज सोमवार है · आज सोमवार आहे</text>

  <g>
    <circle cx="610" cy="210" r="82" fill="#FAFAFA" stroke="#37474F" stroke-width="6"/>
    <g stroke="#90A4AE" stroke-width="3">
      <line x1="610" y1="130" x2="610" y2="145"/>
      <line x1="610" y1="275" x2="610" y2="290"/>
      <line x1="530" y1="210" x2="545" y2="210"/>
      <line x1="675" y1="210" x2="690" y2="210"/>
    </g>
    <g font-family="sans-serif" font-size="17" font-weight="bold" fill="#37474F" text-anchor="middle">
      <text x="610" y="170">12</text>
      <text x="655" y="185">1</text>
      <text x="672" y="218">2</text>
      <text x="660" y="258">3</text>
      <text x="628" y="278">4</text>
      <text x="590" y="278">5</text>
      <text x="560" y="258">6</text>
      <text x="548" y="218">7</text>
      <text x="565" y="185">8</text>
      <text x="610" y="160">9</text>
      <text x="648" y="245">10</text>
      <text x="615" y="268">11</text>
    </g>
    <line x1="610" y1="210" x2="610" y2="152" stroke="#37474F" stroke-width="5" stroke-linecap="round"/>
    <line x1="610" y1="210" x2="658" y2="222" stroke="#E53935" stroke-width="4" stroke-linecap="round"/>
    <circle cx="610" cy="210" r="7" fill="#E53935"/>
    <text x="610" y="330" text-anchor="middle" font-family="sans-serif" font-size="22" font-weight="bold" fill="#37474F">die Uhr</text>
    <text x="610" y="354" text-anchor="middle" font-family="sans-serif" font-size="16" fill="#78909C">घड़ी | घड्याळ</text>
    <rect x="480" y="370" width="260" height="46" rx="23" fill="#E8EAF6"/>
    <text x="610" y="400" text-anchor="middle" font-family="sans-serif" font-size="19" font-weight="bold" fill="#3F51B5">Es ist drei Uhr</text>
    <text x="610" y="452" text-anchor="middle" font-family="sans-serif" font-size="15" fill="#78909C">अभी तीन बजे हैं | आता तीन वाजले</text>
  </g>

  <g font-family="sans-serif" text-anchor="middle">
    <rect x="15" y="480" width="105" height="48" rx="10" fill="#FFF3E0"/>
    <text x="67" y="503" font-size="17" font-weight="bold" fill="#37474F">Montag</text>
    <text x="67" y="520" font-size="12" fill="#78909C">सोमवार</text>
    <rect x="128" y="480" width="105" height="48" rx="10" fill="#E3F2FD"/>
    <text x="180" y="503" font-size="17" font-weight="bold" fill="#37474F">Dienstag</text>
    <text x="180" y="520" font-size="12" fill="#78909C">मंगलवार</text>
    <rect x="241" y="480" width="105" height="48" rx="10" fill="#F3E5F5"/>
    <text x="293" y="503" font-size="17" font-weight="bold" fill="#37474F">Mittwoch</text>
    <text x="293" y="520" font-size="12" fill="#78909C">बुधवार</text>
    <rect x="354" y="480" width="105" height="48" rx="10" fill="#E8F5E9"/>
    <text x="406" y="503" font-size="17" font-weight="bold" fill="#37474F">Donnerstag</text>
    <text x="406" y="520" font-size="12" fill="#78909C">गुरुवार</text>
    <rect x="467" y="480" width="105" height="48" rx="10" fill="#FFFDE7"/>
    <text x="519" y="503" font-size="17" font-weight="bold" fill="#37474F">Freitag</text>
    <text x="519" y="520" font-size="12" fill="#78909C">शुक्रवार</text>
    <rect x="580" y="480" width="105" height="48" rx="10" fill="#FBE9E7"/>
    <text x="632" y="503" font-size="17" font-weight="bold" fill="#37474F">Samstag</text>
    <text x="632" y="520" font-size="12" fill="#78909C">शनिवार</text>
    <rect x="693" y="480" width="105" height="48" rx="10" fill="#E3F2FD"/>
    <text x="745" y="503" font-size="17" font-weight="bold" fill="#37474F">Sonntag</text>
    <text x="745" y="520" font-size="12" fill="#78909C">रविवार</text>
    <text x="400" y="565" font-size="15" fill="#78909C">der Tag · die Woche · der Monat · das Jahr</text>
  </g>
</svg>
