<svg xmlns="http://www.w3.org/2000/svg" viewBox="0 0 800 600">
  <rect width="800" height="600" fill="#ffffff"/>
  <rect y="455" width="800" height="145" fill="#A5D6A7"/>

  <text x="400" y="48" text-anchor="middle" font-family="sans-serif" font-size="34" font-weight="bold" fill="#37474F">Die Begrüßung</text>
  <text x="400" y="74" text-anchor="middle" font-family="sans-serif" font-size="20" fill="#78909C">अभिवादन | अभिवादन</text>

  <circle cx="100" cy="90" r="36" fill="#FFD54F"/>
  <g stroke="#F9A825" stroke-width="5" stroke-linecap="round">
    <line x1="100" y1="40" x2="100" y2="26"/>
    <line x1="140" y1="62" x2="152" y2="52"/>
    <line x1="150" y1="102" x2="165" y2="105"/>
    <line x1="60" y1="62" x2="48" y2="52"/>
    <line x1="50" y1="102" x2="35" y2="105"/>
  </g>

  <g>
    <circle cx="280" cy="280" r="23" fill="#FFCCBC"/>
    <rect x="255" y="303" width="50" height="92" rx="8" fill="#42A5F5"/>
    <rect x="242" y="315" width="16" height="55" rx="7" fill="#42A5F5"/>
    <rect x="300" y="315" width="16" height="55" rx="7" fill="#42A5F5"/>
    <rect x="262" y="395" width="19" height="45" fill="#263238"/>
    <rect x="286" y="395" width="19" height="45" fill="#263238"/>
  </g>

  <g>
    <circle cx="520" cy="280" r="23" fill="#FFCCBC"/>
    <path d="M497,268 Q520,246 543,268 L543,282 Q520,292 497,282 Z" fill="#5D4037"/>
    <rect x="495" y="303" width="50" height="92" rx="8" fill="#66BB6A"/>
    <rect x="482" y="315" width="16" height="55" rx="7" fill="#66BB6A"/>
    <rect x="540" y="315" width="16" height="55" rx="7" fill="#66BB6A"/>
    <rect x="502" y="395" width="19" height="45" fill="#263238"/>
    <rect x="526" y="395" width="19" height="45" fill="#263238"/>
  </g>

  <g>
    <rect x="115" y="150" width="185" height="52" rx="14" fill="#FFFFFF" stroke="#90A4AE" stroke-width="2"/>
    <text x="207" y="184" text-anchor="middle" font-family="sans-serif" font-size="26" font-weight="bold" fill="#1565C0">Hallo!</text>
    <polygon points="225,202 240,238 255,202" fill="#FFFFFF" stroke="#90A4AE" stroke-width="2"/>
  </g>
  <g>
    <rect x="495" y="150" width="210" height="52" rx="14" fill="#FFFFFF" stroke="#90A4AE" stroke-width="2"/>
    <text x="600" y="184" text-anchor="middle" font-family="sans-serif" font-size="24" font-weight="bold" fill="#2E7D32">Guten Morgen!</text>
    <polygon points="535,202 520,238 505,202" fill="#FFFFFF" stroke="#90A4AE" stroke-width="2"/>
  </g>

  <rect x="620" y="230" width="90" height="150" rx="6" fill="#FFAB91"/>
  <polygon points="615,230 665,185 715,230" fill="#D84315"/>
  <rect x="650" y="300" width="30" height="80" rx="4" fill="#8D6E63"/>

  <g font-family="sans-serif" text-anchor="middle">
    <text x="125" y="505" font-size="21" font-weight="bold" fill="#37474F">Hallo</text>
    <text x="125" y="530" font-size="16" fill="#78909C">हालो</text>
    <text x="340" y="505" font-size="21" font-weight="bold" fill="#37474F">Guten Morgen</text>
    <text x="340" y="530" font-size="16" fill="#78909C">गूटन मॉर्गन</text>
    <text x="545" y="505" font-size="21" font-weight="bold" fill="#37474F">Danke</text>
    <text x="545" y="530" font-size="16" fill="#78909C">डांके</text>
    <text x="720" y="505" font-size="21" font-weight="bold" fill="#37474F">Tschüss</text>
    <text x="720" y="530" font-size="16" fill="#78909C">त्स्युस</text>
    <text x="400" y="575" font-size="17" fill="#5D4037">Hallo · Guten Morgen · Danke · Tschüss — A1</text>
  </g>
</svg>
